<?xml version="1.0" encoding="UTF-8"?>
<svg xmlns="http://www.w3.org/2000/svg" xmlns:xlink="http://www.w3.org/1999/xlink" width="30px" height="30px" viewBox="0 0 30 30" version="1.1">
<g id="surface1">
<path style=" stroke:none;fill-rule:evenodd;fill:rgb(0%,0%,0%);fill-opacity:1;" d="M 20.625 8.828125 C 20.625 12.824219 18.210938 16.25 15 16.25 C 11.785156 16.25 9.375 12.824219 9.375 8.828125 C 9.375 4.835938 11.449219 2.5 15 2.5 C 18.550781 2.5 20.625 4.832031 20.625 8.828125 Z M 5.128906 25.175781 C 5.609375 25.75 7.679688 27.5 15 27.5 C 22.320312 27.5 24.390625 25.75 24.871094 25.179688 C 24.964844 25.066406 25.003906 24.925781 24.984375 24.78125 C 24.875 23.679688 23.882812 18.75 15 18.75 C 6.117188 18.75 5.125 23.679688 5.015625 24.78125 C 4.996094 24.925781 5.035156 25.066406 5.128906 25.179688 Z M 5.128906 25.175781 "/>
</g>
</svg>
