<?xml version="1.0" encoding="UTF-8"?>
<svg xmlns="http://www.w3.org/2000/svg" xmlns:xlink="http://www.w3.org/1999/xlink" width="30px" height="30px" viewBox="0 0 30 30" version="1.1">
<g id="surface1">
<path style=" stroke:none;fill-rule:nonzero;fill:rgb(16.078431%,17.647059%,19.607843%);fill-opacity:1;" d="M 27.5 10.625 C 27.5 14.699219 24.5 18.0625 20.601562 18.648438 L 20.601562 18.574219 C 20.210938 13.726562 16.273438 9.789062 11.386719 9.398438 L 11.351562 9.398438 C 11.9375 5.5 15.300781 2.5 19.375 2.5 C 23.863281 2.5 27.5 6.136719 27.5 10.625 Z M 27.5 10.625 "/>
<path style=" stroke:none;fill-rule:nonzero;fill:rgb(16.078431%,17.647059%,19.607843%);fill-opacity:1;" d="M 18.726562 18.726562 C 18.414062 14.761719 15.238281 11.585938 11.273438 11.273438 C 11.0625 11.261719 10.835938 11.25 10.625 11.25 C 6.136719 11.25 2.5 14.886719 2.5 19.375 C 2.5 23.863281 6.136719 27.5 10.625 27.5 C 15.113281 27.5 18.75 23.863281 18.75 19.375 C 18.75 19.164062 18.738281 18.9375 18.726562 18.726562 Z M 11.726562 20.476562 L 10.625 22.5 L 9.523438 20.476562 L 7.5 19.375 L 9.523438 18.273438 L 10.625 16.25 L 11.726562 18.273438 L 13.75 19.375 Z M 11.726562 20.476562 "/>
</g>
</svg>
